<?xml version="1.0" standalone="no"?>
<!DOCTYPE svg PUBLIC "-//W3C//DTD SVG 20010904//EN"
 "http://www.w3.org/TR/2001/REC-SVG-20010904/DTD/svg10.dtd">
<svg version="1.0" xmlns="http://www.w3.org/2000/svg"
 width="736.000000pt" height="736.000000pt" viewBox="0 0 736.000000 736.000000"
 preserveAspectRatio="xMidYMid meet">

<g transform="translate(0.000000,736.000000) scale(0.100000,-0.100000)"
fill="#000000" stroke="none">
<path d="M0 3680 l0 -3680 3680 0 3680 0 0 3680 0 3680 -3680 0 -3680 0 0
-3680z m6068 2078 c110 -40 178 -84 267 -173 61 -62 90 -100 122 -165 39 -78
51 -115 82 -253 14 -60 16 -2832 2 -2886 -5 -20 -15 -61 -21 -93 -13 -69 -80
-208 -125 -264 -97 -118 -180 -178 -320 -234 -74 -29 -135 -30 -2348 -30
-2391 0 -2276 -2 -2397 46 -50 20 -142 79 -196 126 -83 73 -168 215 -210 353
-18 57 -19 128 -19 1535 0 1475 0 1475 21 1545 31 100 85 210 129 262 34 39
130 133 136 133 4 0 20 10 36 23 39 32 142 76 216 92 51 11 447 13 2307 12
l2245 -2 73 -27z"/>
<path d="M1475 5341 c-48 -21 -115 -82 -115 -104 0 -8 68 -68 152 -134 224
-174 328 -254 499 -387 85 -66 180 -140 213 -165 32 -25 82 -64 111 -86 91
-69 310 -239 315 -244 3 -4 34 -28 70 -56 36 -27 67 -52 70 -55 3 -3 48 -38
100 -78 52 -39 145 -110 205 -157 61 -47 144 -111 185 -142 41 -32 80 -62 86
-68 13 -11 186 -147 372 -290 68 -52 129 -95 135 -95 7 0 37 24 67 53 30 29
109 102 174 162 66 61 135 126 155 145 20 19 59 55 86 79 28 25 106 97 174
160 153 143 176 164 401 376 36 33 124 114 195 179 72 66 168 156 215 200 66
63 279 262 366 341 81 75 267 249 297 279 44 43 42 48 -28 85 l-40 21 -2210 0
c-2117 0 -2212 -1 -2250 -19z"/>
<path d="M6010 4743 c-63 -58 -178 -166 -255 -238 -77 -72 -167 -156 -200
-185 -33 -29 -96 -87 -141 -129 -206 -194 -456 -428 -533 -499 l-45 -40 282
-284 c154 -155 444 -449 644 -651 200 -202 367 -365 371 -361 9 10 9 2494 0
2494 -5 0 -60 -48 -123 -107z"/>
<path d="M1310 3537 c0 -679 3 -1236 6 -1240 3 -3 47 29 96 71 50 42 118 100
152 127 34 28 116 96 181 151 131 111 338 286 370 312 75 62 204 170 225 189
65 58 319 272 393 331 23 19 60 50 81 70 38 35 39 36 19 51 -26 20 -246 191
-323 251 -31 25 -92 72 -135 105 -43 33 -83 65 -89 70 -6 6 -27 22 -46 35 -19
13 -37 27 -40 30 -3 3 -63 51 -135 105 -71 55 -185 142 -251 195 -305 239
-490 380 -498 380 -3 0 -6 -555 -6 -1233z"/>
<path d="M4450 3293 c-58 -53 -143 -133 -190 -177 -47 -45 -119 -112 -160
-150 -41 -38 -100 -92 -130 -121 -30 -28 -60 -55 -67 -59 -12 -6 -96 57 -563
419 -95 74 -176 135 -178 135 -5 0 -174 -140 -402 -333 -96 -82 -182 -154
-190 -160 -8 -7 -60 -50 -116 -97 -100 -84 -115 -97 -210 -175 -26 -22 -66
-56 -89 -76 -22 -19 -83 -71 -135 -114 -52 -44 -112 -96 -133 -115 -21 -19
-47 -39 -56 -45 -35 -20 -150 -128 -145 -136 3 -5 937 -7 2077 -6 1622 2 2072
5 2072 14 0 13 -1262 1293 -1274 1293 -4 0 -54 -43 -111 -97z"/>
</g>
</svg>
