<svg id="Layer_1" data-name="Layer 1" xmlns="http://www.w3.org/2000/svg" viewBox="0 0 122.88 122.88">
    <defs>
        <style>.cls-1,.cls-2{fill-rule:evenodd;}.cls-2{fill:#fff;}</style>
    </defs>
    <title>call-square</title>
    <path class="cls-1"
        d="M21.87,0H101a21.93,21.93,0,0,1,21.87,21.87V101A21.93,21.93,0,0,1,101,122.88H21.87A21.93,21.93,0,0,1,0,101V21.87A21.93,21.93,0,0,1,21.87,0Z" />
    <path class="cls-2"
        d="M43.93,55.89C48.86,64.78,55.31,73,67.24,79.09c1.79.92,3.42,0,4.82-1.45,2.08-2.06,5-7.9,8.49-6.27l13,7.5c2.66,1.8,1.87,6,0,9.24-2.57,4.54-7.77,6-12.68,6.76C73.38,96,66.66,93.46,58.54,88.42c-2-1.21-4.09-2.51-6.19-4.09-13.31-10-27-28.2-24.46-44.3C29,32.87,33.73,27,43,27.83L51.32,42c1.7,2.12.45,4.09-2.14,6s-6.85,4.16-5.25,7.93Z" />
</svg>